<svg xmlns="http://www.w3.org/2000/svg" xmlns:xlink="http://www.w3.org/1999/xlink" width="500" zoomAndPan="magnify" viewBox="0 0 375 374.999991" height="500" preserveAspectRatio="xMidYMid meet" version="1.0"><defs><clipPath id="f301d8410d"><path d="M 65.59375 65.59375 L 309.40625 65.59375 L 309.40625 309.40625 L 65.59375 309.40625 Z M 65.59375 65.59375 " clip-rule="nonzero"/></clipPath><clipPath id="a26447ac1c"><path d="M 187.5 65.59375 C 120.171875 65.59375 65.59375 120.171875 65.59375 187.5 C 65.59375 254.828125 120.171875 309.40625 187.5 309.40625 C 254.828125 309.40625 309.40625 254.828125 309.40625 187.5 C 309.40625 120.171875 254.828125 65.59375 187.5 65.59375 Z M 187.5 65.59375 " clip-rule="nonzero"/></clipPath><clipPath id="f46cc70483"><path d="M 70.761719 70.761719 L 304.011719 70.761719 L 304.011719 304.011719 L 70.761719 304.011719 Z M 70.761719 70.761719 " clip-rule="nonzero"/></clipPath><clipPath id="709012be6a"><path d="M 107 123 L 268 123 L 268 256.160156 L 107 256.160156 Z M 107 123 " clip-rule="nonzero"/></clipPath><clipPath id="faba97dfc4"><path d="M 95.703125 149.886719 L 175 149.886719 L 175 229 L 95.703125 229 Z M 95.703125 149.886719 " clip-rule="nonzero"/></clipPath><clipPath id="6d72fcf9a4"><path d="M 200 152 L 279.453125 152 L 279.453125 230.886719 L 200 230.886719 Z M 200 152 " clip-rule="nonzero"/></clipPath></defs><rect x="-37.5" width="450" fill="#ffffff" y="-37.499999" height="449.999989" fill-opacity="1"/><rect x="-37.5" width="450" fill="#ffffff" y="-37.499999" height="449.999989" fill-opacity="1"/><g clip-path="url(#f301d8410d)"><g clip-path="url(#a26447ac1c)"><path fill="#fdcedf" d="M 65.59375 65.59375 L 309.40625 65.59375 L 309.40625 309.40625 L 65.59375 309.40625 Z M 65.59375 65.59375 " fill-opacity="1" fill-rule="nonzero"/></g></g><g clip-path="url(#f46cc70483)"><path fill="#ffffff" d="M 187.410156 304.011719 C 156.269531 304.011719 126.945312 291.878906 104.917969 269.851562 C 82.890625 247.824219 70.761719 218.546875 70.761719 187.410156 C 70.761719 156.269531 82.890625 126.945312 104.917969 104.917969 C 126.945312 82.890625 156.226562 70.761719 187.410156 70.761719 C 218.59375 70.761719 247.824219 82.890625 269.851562 104.917969 C 291.878906 126.945312 304.011719 156.226562 304.011719 187.410156 C 304.011719 218.59375 291.878906 247.824219 269.851562 269.851562 C 247.824219 291.878906 218.546875 304.011719 187.410156 304.011719 Z M 187.410156 77.730469 C 158.128906 77.730469 130.570312 89.117188 109.84375 109.84375 C 89.117188 130.570312 77.730469 158.082031 77.730469 187.410156 C 77.730469 216.734375 89.117188 244.246094 109.84375 264.972656 C 130.570312 285.699219 158.082031 297.085938 187.410156 297.085938 C 216.734375 297.085938 244.246094 285.699219 264.972656 264.972656 C 285.699219 244.246094 297.085938 216.734375 297.085938 187.410156 C 297.085938 158.082031 285.699219 130.570312 264.972656 109.84375 C 244.199219 89.117188 216.6875 77.730469 187.410156 77.730469 Z M 187.410156 77.730469 " fill-opacity="1" fill-rule="nonzero"/></g><path fill="#ffffff" d="M 185.085938 289.464844 L 184.804688 289.464844 C 183.785156 289.417969 182.992188 288.582031 183.039062 287.605469 C 183.085938 286.628906 183.875 285.839844 184.851562 285.839844 C 184.851562 285.839844 184.898438 285.839844 184.898438 285.839844 L 185.132812 285.839844 C 186.152344 285.886719 186.945312 286.722656 186.898438 287.699219 C 186.898438 288.675781 186.105469 289.464844 185.085938 289.464844 Z M 194.285156 289.230469 C 193.308594 289.230469 192.519531 288.488281 192.472656 287.511719 C 192.425781 286.488281 193.171875 285.652344 194.195312 285.558594 L 194.378906 285.558594 C 195.402344 285.46875 196.285156 286.257812 196.332031 287.234375 C 196.425781 288.253906 195.632812 289.136719 194.660156 289.183594 L 194.425781 289.183594 C 194.332031 289.230469 194.285156 289.230469 194.285156 289.230469 Z M 175.742188 288.8125 C 175.695312 288.8125 175.605469 288.8125 175.511719 288.8125 L 175.277344 288.765625 C 174.257812 288.628906 173.558594 287.746094 173.699219 286.722656 C 173.839844 285.699219 174.722656 285.003906 175.742188 285.140625 L 175.976562 285.1875 C 177 285.28125 177.695312 286.210938 177.601562 287.234375 C 177.417969 288.117188 176.625 288.8125 175.742188 288.8125 Z M 203.582031 288.164062 C 202.699219 288.164062 201.90625 287.511719 201.769531 286.628906 C 201.582031 285.652344 202.28125 284.675781 203.300781 284.539062 L 203.535156 284.492188 C 204.511719 284.351562 205.488281 285.003906 205.625 286.023438 C 205.765625 287.046875 205.113281 287.976562 204.09375 288.117188 L 203.859375 288.164062 C 203.8125 288.164062 203.71875 288.164062 203.582031 288.164062 Z M 166.449219 287.28125 C 166.308594 287.28125 166.214844 287.28125 166.078125 287.234375 L 165.84375 287.1875 C 164.867188 286.953125 164.21875 285.976562 164.449219 285.003906 C 164.683594 284.027344 165.660156 283.375 166.632812 283.609375 L 166.867188 283.65625 C 167.84375 283.886719 168.492188 284.816406 168.261719 285.839844 C 168.074219 286.722656 167.285156 287.28125 166.449219 287.28125 Z M 212.78125 286.257812 C 211.945312 286.257812 211.203125 285.699219 211.015625 284.863281 C 210.785156 283.886719 211.34375 282.863281 212.363281 282.632812 L 212.550781 282.585938 C 213.527344 282.308594 214.546875 282.910156 214.78125 283.886719 C 215.058594 284.863281 214.457031 285.886719 213.480469 286.117188 L 213.246094 286.164062 C 213.109375 286.210938 212.921875 286.257812 212.78125 286.257812 Z M 157.386719 284.910156 C 157.199219 284.910156 157.015625 284.863281 156.828125 284.816406 L 156.644531 284.769531 C 155.667969 284.445312 155.109375 283.421875 155.433594 282.445312 C 155.761719 281.46875 156.734375 280.960938 157.710938 281.238281 L 157.945312 281.285156 C 158.921875 281.5625 159.429688 282.632812 159.152344 283.5625 C 158.875 284.398438 158.128906 284.910156 157.386719 284.910156 Z M 221.753906 283.421875 C 221.007812 283.421875 220.3125 282.957031 220.03125 282.214844 C 219.707031 281.285156 220.171875 280.214844 221.148438 279.890625 L 221.332031 279.796875 C 222.261719 279.472656 223.332031 279.9375 223.703125 280.867188 C 224.03125 281.796875 223.566406 282.863281 222.636719 283.238281 L 222.402344 283.328125 C 222.171875 283.421875 221.984375 283.421875 221.753906 283.421875 Z M 148.554688 281.703125 C 148.324219 281.703125 148.09375 281.65625 147.859375 281.5625 L 147.628906 281.46875 C 146.699219 281.050781 146.28125 279.984375 146.652344 279.054688 C 147.070312 278.125 148.136719 277.707031 149.066406 278.078125 L 149.253906 278.171875 C 150.183594 278.542969 150.648438 279.613281 150.230469 280.585938 C 149.949219 281.238281 149.253906 281.703125 148.554688 281.703125 Z M 230.441406 279.796875 C 229.746094 279.796875 229.09375 279.425781 228.816406 278.773438 C 228.398438 277.84375 228.769531 276.777344 229.652344 276.3125 L 229.886719 276.21875 C 230.816406 275.800781 231.882812 276.171875 232.347656 277.101562 C 232.765625 278.03125 232.394531 279.101562 231.464844 279.519531 L 231.277344 279.613281 C 230.953125 279.75 230.675781 279.796875 230.441406 279.796875 Z M 140.050781 277.613281 C 139.773438 277.613281 139.449219 277.519531 139.167969 277.378906 L 138.984375 277.289062 C 138.101562 276.824219 137.773438 275.707031 138.238281 274.824219 C 138.703125 273.941406 139.820312 273.617188 140.703125 274.082031 L 140.886719 274.175781 C 141.769531 274.640625 142.097656 275.753906 141.632812 276.636719 C 141.351562 277.289062 140.703125 277.613281 140.050781 277.613281 Z M 238.714844 275.382812 C 238.109375 275.382812 237.507812 275.058594 237.136719 274.5 C 236.625 273.617188 236.902344 272.5 237.738281 271.988281 L 237.925781 271.851562 C 238.808594 271.339844 239.921875 271.617188 240.433594 272.5 C 240.945312 273.382812 240.667969 274.5 239.785156 275.011719 L 239.597656 275.105469 C 239.367188 275.289062 239.039062 275.382812 238.714844 275.382812 Z M 131.964844 272.78125 C 131.640625 272.78125 131.269531 272.6875 130.941406 272.453125 L 130.757812 272.316406 C 129.921875 271.757812 129.6875 270.640625 130.246094 269.757812 C 130.804688 268.921875 131.917969 268.691406 132.800781 269.246094 L 132.988281 269.386719 C 133.824219 269.945312 134.058594 271.058594 133.5 271.945312 C 133.175781 272.5 132.570312 272.78125 131.964844 272.78125 Z M 246.570312 270.175781 C 246.011719 270.175781 245.453125 269.898438 245.082031 269.433594 C 244.476562 268.644531 244.664062 267.480469 245.453125 266.878906 L 245.640625 266.738281 C 246.476562 266.132812 247.589844 266.320312 248.195312 267.109375 C 248.800781 267.945312 248.613281 269.0625 247.824219 269.667969 L 247.636719 269.804688 C 247.3125 270.085938 246.941406 270.175781 246.570312 270.175781 Z M 124.390625 267.25 C 123.972656 267.25 123.554688 267.109375 123.230469 266.832031 L 123.042969 266.691406 C 122.253906 266.042969 122.113281 264.925781 122.765625 264.136719 C 123.414062 263.347656 124.53125 263.207031 125.320312 263.855469 L 125.503906 263.996094 C 126.296875 264.648438 126.390625 265.808594 125.785156 266.550781 C 125.460938 267.015625 124.949219 267.25 124.390625 267.25 Z M 253.867188 264.273438 C 253.355469 264.273438 252.84375 264.089844 252.519531 263.671875 C 251.867188 262.925781 251.914062 261.765625 252.65625 261.113281 L 252.84375 260.976562 C 253.585938 260.277344 254.75 260.371094 255.445312 261.113281 C 256.140625 261.859375 256.050781 263.019531 255.304688 263.71875 L 255.167969 263.855469 C 254.75 264.136719 254.285156 264.273438 253.867188 264.273438 Z M 117.371094 260.976562 C 116.910156 260.976562 116.445312 260.789062 116.117188 260.464844 L 115.933594 260.277344 C 115.1875 259.582031 115.1875 258.417969 115.933594 257.675781 C 116.628906 256.933594 117.792969 256.933594 118.535156 257.675781 L 118.675781 257.816406 C 119.417969 258.511719 119.417969 259.675781 118.71875 260.417969 C 118.347656 260.835938 117.835938 260.976562 117.371094 260.976562 Z M 260.605469 257.722656 C 260.140625 257.722656 259.722656 257.582031 259.347656 257.210938 C 258.605469 256.515625 258.558594 255.351562 259.257812 254.609375 L 259.394531 254.421875 C 260.09375 253.679688 261.253906 253.632812 262 254.328125 C 262.742188 255.027344 262.789062 256.1875 262.089844 256.933594 L 261.953125 257.070312 C 261.578125 257.535156 261.070312 257.722656 260.605469 257.722656 Z M 110.960938 254.144531 C 110.449219 254.144531 109.9375 253.910156 109.566406 253.492188 L 109.425781 253.308594 C 108.773438 252.519531 108.867188 251.402344 109.660156 250.707031 C 110.449219 250.054688 111.5625 250.148438 112.261719 250.9375 L 112.398438 251.125 C 113.050781 251.914062 112.957031 253.027344 112.167969 253.726562 C 111.796875 254.003906 111.378906 254.144531 110.960938 254.144531 Z M 266.691406 250.566406 C 266.320312 250.566406 265.902344 250.425781 265.578125 250.195312 C 264.785156 249.589844 264.601562 248.429688 265.25 247.636719 L 265.390625 247.453125 C 265.996094 246.660156 267.15625 246.523438 267.945312 247.125 C 268.738281 247.730469 268.875 248.894531 268.273438 249.683594 L 268.132812 249.867188 C 267.808594 250.332031 267.25 250.566406 266.691406 250.566406 Z M 105.242188 246.707031 C 104.6875 246.707031 104.082031 246.429688 103.757812 245.917969 L 103.617188 245.734375 C 103.058594 244.894531 103.246094 243.78125 104.082031 243.175781 C 104.917969 242.617188 106.035156 242.804688 106.636719 243.640625 L 106.777344 243.828125 C 107.335938 244.664062 107.148438 245.777344 106.3125 246.382812 C 105.941406 246.570312 105.570312 246.707031 105.242188 246.707031 Z M 272.082031 242.898438 C 271.757812 242.898438 271.433594 242.804688 271.105469 242.617188 C 270.269531 242.0625 269.992188 240.945312 270.550781 240.109375 L 270.6875 239.921875 C 271.246094 239.085938 272.363281 238.808594 273.199219 239.367188 C 274.035156 239.921875 274.3125 241.039062 273.757812 241.875 L 273.617188 242.0625 C 273.292969 242.574219 272.6875 242.898438 272.082031 242.898438 Z M 100.179688 238.761719 C 99.527344 238.761719 98.921875 238.4375 98.597656 237.832031 L 98.503906 237.644531 C 97.992188 236.761719 98.320312 235.648438 99.203125 235.136719 C 100.085938 234.625 101.199219 234.949219 101.710938 235.832031 L 101.804688 236.019531 C 102.316406 236.902344 101.992188 238.019531 101.105469 238.527344 C 100.828125 238.667969 100.503906 238.761719 100.179688 238.761719 Z M 276.777344 234.71875 C 276.496094 234.71875 276.21875 234.671875 275.941406 234.53125 C 275.058594 234.066406 274.683594 232.953125 275.148438 232.070312 L 275.242188 231.882812 C 275.707031 231 276.824219 230.628906 277.707031 231.09375 C 278.589844 231.558594 278.960938 232.671875 278.496094 233.554688 L 278.402344 233.742188 C 278.078125 234.347656 277.425781 234.71875 276.777344 234.71875 Z M 95.949219 230.394531 C 95.25 230.394531 94.601562 229.976562 94.277344 229.328125 L 94.183594 229.140625 C 93.765625 228.210938 94.183594 227.144531 95.113281 226.726562 C 96.042969 226.304688 97.109375 226.726562 97.527344 227.65625 L 97.621094 227.839844 C 98.039062 228.769531 97.621094 229.839844 96.691406 230.257812 C 96.460938 230.351562 96.179688 230.394531 95.949219 230.394531 Z M 280.632812 226.167969 C 280.402344 226.167969 280.167969 226.121094 279.984375 226.027344 C 279.054688 225.65625 278.589844 224.585938 278.960938 223.65625 L 279.054688 223.425781 C 279.425781 222.496094 280.496094 222.03125 281.425781 222.402344 C 282.351562 222.773438 282.816406 223.84375 282.445312 224.773438 L 282.351562 225.003906 C 282.027344 225.703125 281.378906 226.167969 280.632812 226.167969 Z M 92.464844 221.660156 C 91.71875 221.660156 90.976562 221.195312 90.742188 220.40625 L 90.652344 220.171875 C 90.324219 219.195312 90.835938 218.171875 91.8125 217.847656 C 92.789062 217.523438 93.8125 218.035156 94.136719 219.011719 L 94.230469 219.242188 C 94.554688 220.21875 94.042969 221.242188 93.113281 221.566406 C 92.882812 221.613281 92.695312 221.660156 92.464844 221.660156 Z M 283.703125 217.289062 C 283.515625 217.289062 283.375 217.246094 283.191406 217.199219 C 282.214844 216.917969 281.65625 215.898438 281.933594 214.921875 L 281.980469 214.6875 C 282.261719 213.710938 283.28125 213.15625 284.257812 213.433594 C 285.234375 213.710938 285.792969 214.734375 285.515625 215.710938 L 285.46875 215.941406 C 285.1875 216.734375 284.492188 217.289062 283.703125 217.289062 Z M 89.859375 212.597656 C 89.023438 212.597656 88.28125 212.039062 88.09375 211.203125 L 88.046875 210.96875 C 87.816406 209.996094 88.421875 209.019531 89.394531 208.785156 C 90.371094 208.554688 91.347656 209.15625 91.582031 210.132812 L 91.625 210.367188 C 91.859375 211.34375 91.253906 212.316406 90.277344 212.550781 C 90.140625 212.597656 90 212.597656 89.859375 212.597656 Z M 285.886719 208.136719 C 285.792969 208.136719 285.652344 208.136719 285.515625 208.089844 C 284.539062 207.902344 283.886719 206.925781 284.074219 205.953125 L 284.121094 205.71875 C 284.304688 204.742188 285.28125 204.09375 286.257812 204.277344 C 287.234375 204.464844 287.882812 205.441406 287.699219 206.414062 L 287.652344 206.648438 C 287.511719 207.53125 286.722656 208.136719 285.886719 208.136719 Z M 88.09375 203.394531 C 87.210938 203.394531 86.421875 202.746094 86.28125 201.816406 L 86.234375 201.582031 C 86.097656 200.558594 86.792969 199.675781 87.816406 199.539062 C 88.839844 199.398438 89.722656 200.09375 89.859375 201.117188 L 89.90625 201.351562 C 90.046875 202.371094 89.347656 203.253906 88.375 203.441406 C 88.28125 203.394531 88.1875 203.394531 88.09375 203.394531 Z M 287.1875 198.839844 C 287.140625 198.839844 287.046875 198.839844 287 198.839844 C 285.976562 198.746094 285.234375 197.863281 285.375 196.84375 L 285.375 196.609375 C 285.46875 195.585938 286.351562 194.84375 287.371094 194.984375 C 288.394531 195.078125 289.136719 195.960938 289 196.980469 L 289 197.214844 C 288.953125 198.144531 288.117188 198.839844 287.1875 198.839844 Z M 87.257812 194.054688 C 86.28125 194.054688 85.492188 193.308594 85.445312 192.289062 L 85.445312 192.054688 C 85.398438 191.035156 86.1875 190.195312 87.164062 190.148438 C 88.1875 190.105469 89.023438 190.894531 89.070312 191.871094 L 89.070312 192.101562 C 89.117188 193.125 88.328125 193.960938 87.351562 194.007812 C 87.304688 194.054688 87.257812 194.054688 87.257812 194.054688 Z M 287.652344 189.222656 C 286.628906 189.222656 285.746094 188.617188 285.746094 187.59375 L 285.746094 187.410156 C 285.746094 187.410156 285.746094 187.363281 285.746094 187.363281 L 285.746094 187.128906 C 285.746094 186.105469 286.582031 185.316406 287.605469 185.316406 C 288.628906 185.316406 289.464844 186.152344 289.464844 187.128906 L 289.464844 187.316406 C 289.464844 187.316406 289.464844 187.363281 289.464844 187.363281 L 289.464844 187.59375 C 289.464844 188.617188 288.675781 189.222656 287.652344 189.222656 Z M 87.210938 184.621094 C 87.164062 184.621094 87.164062 184.621094 87.117188 184.621094 C 86.097656 184.574219 85.304688 183.738281 85.351562 182.714844 L 85.351562 182.480469 C 85.398438 181.460938 86.28125 180.714844 87.257812 180.761719 C 88.28125 180.808594 89.070312 181.644531 88.976562 182.667969 L 88.976562 182.902344 C 89.023438 183.875 88.1875 184.621094 87.210938 184.621094 Z M 287.234375 179.832031 C 286.304688 179.832031 285.515625 179.136719 285.421875 178.160156 L 285.421875 177.929688 C 285.328125 176.90625 286.070312 176.023438 287.046875 175.929688 C 288.070312 175.835938 288.953125 176.578125 289.046875 177.554688 L 289.046875 177.789062 C 289.136719 178.8125 288.394531 179.695312 287.371094 179.785156 C 287.324219 179.832031 287.28125 179.832031 287.234375 179.832031 Z M 88.09375 175.277344 C 88 175.277344 87.910156 175.277344 87.863281 175.277344 C 86.839844 175.140625 86.144531 174.210938 86.28125 173.234375 L 86.328125 173 C 86.46875 171.980469 87.398438 171.28125 88.421875 171.46875 C 89.441406 171.605469 90.140625 172.535156 89.953125 173.558594 L 89.90625 173.792969 C 89.769531 174.628906 88.976562 175.277344 88.09375 175.277344 Z M 285.933594 170.539062 C 285.050781 170.539062 284.304688 169.933594 284.121094 169.050781 L 284.074219 168.820312 C 283.886719 167.84375 284.539062 166.867188 285.515625 166.679688 C 286.488281 166.496094 287.464844 167.144531 287.652344 168.121094 L 287.699219 168.355469 C 287.882812 169.332031 287.234375 170.304688 286.257812 170.492188 C 286.117188 170.539062 286.023438 170.539062 285.933594 170.539062 Z M 89.8125 166.03125 C 89.675781 166.03125 89.535156 166.03125 89.394531 165.984375 C 88.421875 165.75 87.816406 164.777344 88.046875 163.800781 L 88.09375 163.566406 C 88.328125 162.589844 89.304688 161.988281 90.277344 162.21875 C 91.253906 162.453125 91.859375 163.429688 91.625 164.402344 L 91.582031 164.636719 C 91.394531 165.472656 90.652344 166.03125 89.8125 166.03125 Z M 283.746094 161.382812 C 282.957031 161.382812 282.214844 160.871094 281.980469 160.035156 L 281.933594 159.804688 C 281.65625 158.828125 282.214844 157.804688 283.191406 157.527344 C 284.164062 157.246094 285.1875 157.804688 285.46875 158.78125 L 285.515625 159.011719 C 285.792969 159.988281 285.234375 161.011719 284.257812 161.289062 C 284.074219 161.382812 283.886719 161.382812 283.746094 161.382812 Z M 92.417969 157.015625 C 92.230469 157.015625 92.046875 156.96875 91.8125 156.921875 C 90.835938 156.597656 90.324219 155.574219 90.652344 154.597656 L 90.742188 154.414062 C 91.070312 153.4375 92.136719 152.925781 93.066406 153.25 C 94.042969 153.574219 94.554688 154.597656 94.230469 155.574219 L 94.136719 155.804688 C 93.902344 156.550781 93.160156 157.015625 92.417969 157.015625 Z M 280.726562 152.507812 C 279.984375 152.507812 279.285156 152.042969 279.007812 151.34375 L 278.914062 151.160156 C 278.542969 150.230469 279.007812 149.160156 279.9375 148.789062 C 280.867188 148.417969 281.933594 148.882812 282.308594 149.8125 L 282.398438 150.042969 C 282.773438 150.972656 282.308594 152.042969 281.378906 152.414062 C 281.144531 152.460938 280.960938 152.507812 280.726562 152.507812 Z M 95.855469 148.277344 C 95.625 148.277344 95.34375 148.230469 95.113281 148.136719 C 94.183594 147.71875 93.765625 146.652344 94.183594 145.722656 L 94.277344 145.488281 C 94.695312 144.558594 95.761719 144.140625 96.691406 144.558594 C 97.621094 144.976562 98.039062 146.046875 97.621094 146.976562 L 97.527344 147.164062 C 97.203125 147.859375 96.554688 148.277344 95.855469 148.277344 Z M 276.871094 143.910156 C 276.21875 143.910156 275.570312 143.539062 275.242188 142.886719 L 275.148438 142.699219 C 274.683594 141.816406 275.058594 140.703125 275.941406 140.238281 C 276.824219 139.773438 277.9375 140.144531 278.402344 141.027344 L 278.496094 141.214844 C 278.960938 142.097656 278.589844 143.210938 277.707031 143.675781 C 277.425781 143.863281 277.148438 143.910156 276.871094 143.910156 Z M 100.085938 139.867188 C 99.757812 139.867188 99.480469 139.773438 99.203125 139.632812 C 98.320312 139.121094 97.992188 138.007812 98.503906 137.125 L 98.597656 136.9375 C 99.109375 136.054688 100.222656 135.777344 101.105469 136.242188 C 101.992188 136.753906 102.269531 137.867188 101.804688 138.75 L 101.710938 138.9375 C 101.339844 139.539062 100.734375 139.867188 100.085938 139.867188 Z M 272.222656 135.730469 C 271.617188 135.730469 271.015625 135.40625 270.6875 134.894531 L 270.597656 134.707031 C 270.039062 133.871094 270.316406 132.710938 271.152344 132.199219 C 271.988281 131.640625 273.152344 131.917969 273.664062 132.753906 L 273.800781 132.941406 C 274.359375 133.777344 274.082031 134.941406 273.246094 135.449219 C 272.871094 135.683594 272.546875 135.730469 272.222656 135.730469 Z M 105.105469 131.917969 C 104.730469 131.917969 104.359375 131.824219 104.082031 131.59375 C 103.246094 131.035156 103.058594 129.875 103.617188 129.039062 L 103.757812 128.851562 C 104.3125 128.015625 105.476562 127.828125 106.3125 128.386719 C 107.148438 128.992188 107.335938 130.105469 106.777344 130.941406 L 106.636719 131.128906 C 106.265625 131.640625 105.660156 131.917969 105.105469 131.917969 Z M 266.832031 128.0625 C 266.273438 128.0625 265.714844 127.828125 265.390625 127.363281 L 265.25 127.179688 C 264.648438 126.390625 264.785156 125.226562 265.578125 124.621094 C 266.367188 124.019531 267.527344 124.15625 268.132812 124.949219 L 268.273438 125.132812 C 268.875 125.925781 268.738281 127.085938 267.945312 127.691406 C 267.621094 127.921875 267.25 128.0625 266.832031 128.0625 Z M 110.820312 124.484375 C 110.402344 124.484375 109.984375 124.34375 109.660156 124.066406 C 108.867188 123.414062 108.773438 122.253906 109.425781 121.507812 L 109.566406 121.324219 C 110.214844 120.53125 111.378906 120.488281 112.167969 121.136719 C 112.957031 121.789062 113.003906 122.949219 112.355469 123.738281 L 112.214844 123.925781 C 111.890625 124.25 111.332031 124.484375 110.820312 124.484375 Z M 260.742188 120.90625 C 260.230469 120.90625 259.765625 120.71875 259.394531 120.300781 L 259.257812 120.160156 C 258.558594 119.417969 258.605469 118.257812 259.347656 117.558594 C 260.09375 116.863281 261.253906 116.910156 261.953125 117.652344 L 262.136719 117.835938 C 262.835938 118.582031 262.789062 119.742188 262.042969 120.441406 C 261.671875 120.71875 261.207031 120.90625 260.742188 120.90625 Z M 117.234375 117.605469 C 116.769531 117.605469 116.304688 117.417969 115.933594 117.046875 C 115.234375 116.304688 115.234375 115.1875 115.980469 114.445312 L 116.164062 114.257812 C 116.910156 113.5625 118.070312 113.5625 118.765625 114.304688 C 119.464844 115.050781 119.464844 116.210938 118.71875 116.910156 L 118.582031 117.046875 C 118.164062 117.417969 117.699219 117.605469 117.234375 117.605469 Z M 254.050781 114.304688 C 253.632812 114.304688 253.167969 114.167969 252.84375 113.839844 L 252.703125 113.703125 C 251.960938 113.050781 251.867188 111.890625 252.5625 111.097656 C 253.214844 110.355469 254.375 110.261719 255.167969 110.960938 L 255.351562 111.097656 C 256.097656 111.796875 256.1875 112.910156 255.492188 113.703125 C 255.027344 114.121094 254.5625 114.304688 254.050781 114.304688 Z M 124.25 111.332031 C 123.738281 111.332031 123.183594 111.097656 122.808594 110.632812 C 122.160156 109.84375 122.300781 108.683594 123.089844 108.078125 L 123.273438 107.9375 C 124.066406 107.289062 125.226562 107.425781 125.832031 108.21875 C 126.480469 109.007812 126.34375 110.167969 125.550781 110.773438 L 125.367188 110.914062 C 125.042969 111.191406 124.667969 111.332031 124.25 111.332031 Z M 246.753906 108.402344 C 246.382812 108.402344 246.011719 108.3125 245.6875 108.03125 L 245.5 107.890625 C 244.664062 107.289062 244.523438 106.171875 245.082031 105.335938 C 245.6875 104.5 246.847656 104.359375 247.636719 104.917969 L 247.824219 105.058594 C 248.660156 105.660156 248.800781 106.824219 248.195312 107.613281 C 247.871094 108.125 247.3125 108.402344 246.753906 108.402344 Z M 131.824219 105.753906 C 131.222656 105.753906 130.664062 105.476562 130.292969 104.917969 C 129.734375 104.082031 129.96875 102.917969 130.804688 102.363281 L 130.988281 102.222656 C 131.824219 101.664062 132.988281 101.898438 133.546875 102.734375 C 134.101562 103.570312 133.871094 104.730469 133.035156 105.289062 L 132.847656 105.429688 C 132.523438 105.660156 132.152344 105.753906 131.824219 105.753906 Z M 238.902344 103.199219 C 238.574219 103.199219 238.25 103.105469 237.972656 102.917969 L 237.785156 102.78125 C 236.902344 102.269531 236.625 101.152344 237.136719 100.269531 C 237.644531 99.386719 238.761719 99.109375 239.644531 99.621094 L 239.832031 99.757812 C 240.714844 100.269531 240.992188 101.386719 240.480469 102.269531 C 240.15625 102.875 239.550781 103.199219 238.902344 103.199219 Z M 139.867188 100.921875 C 139.214844 100.921875 138.566406 100.550781 138.238281 99.945312 C 137.773438 99.0625 138.101562 97.945312 138.984375 97.480469 L 139.167969 97.390625 C 140.050781 96.925781 141.167969 97.25 141.632812 98.132812 C 142.097656 99.015625 141.769531 100.132812 140.886719 100.597656 L 140.703125 100.6875 C 140.46875 100.828125 140.144531 100.921875 139.867188 100.921875 Z M 230.628906 98.738281 C 230.351562 98.738281 230.117188 98.691406 229.839844 98.550781 L 229.652344 98.457031 C 228.722656 98.039062 228.351562 96.925781 228.769531 95.996094 C 229.1875 95.066406 230.304688 94.695312 231.234375 95.113281 L 231.417969 95.207031 C 232.347656 95.625 232.71875 96.738281 232.300781 97.667969 C 231.976562 98.367188 231.324219 98.738281 230.628906 98.738281 Z M 148.324219 96.832031 C 147.628906 96.832031 146.929688 96.414062 146.652344 95.714844 C 146.28125 94.785156 146.699219 93.71875 147.628906 93.300781 L 147.859375 93.207031 C 148.789062 92.835938 149.859375 93.253906 150.277344 94.183594 C 150.648438 95.113281 150.230469 96.179688 149.300781 96.597656 L 149.113281 96.691406 C 148.789062 96.785156 148.554688 96.832031 148.324219 96.832031 Z M 221.984375 95.066406 C 221.796875 95.066406 221.566406 95.019531 221.378906 94.972656 L 221.148438 94.878906 C 220.21875 94.554688 219.707031 93.484375 220.078125 92.507812 C 220.40625 91.582031 221.472656 91.070312 222.449219 91.441406 L 222.683594 91.535156 C 223.609375 91.859375 224.121094 92.929688 223.796875 93.902344 C 223.425781 94.601562 222.726562 95.066406 221.984375 95.066406 Z M 157.152344 93.578125 C 156.363281 93.578125 155.667969 93.066406 155.386719 92.277344 C 155.0625 91.300781 155.621094 90.277344 156.597656 90 L 156.828125 89.953125 C 157.804688 89.628906 158.828125 90.1875 159.105469 91.160156 C 159.429688 92.136719 158.875 93.160156 157.898438 93.4375 L 157.664062 93.484375 C 157.527344 93.578125 157.339844 93.578125 157.152344 93.578125 Z M 213.015625 92.277344 C 212.875 92.277344 212.691406 92.277344 212.550781 92.230469 L 212.316406 92.183594 C 211.34375 91.953125 210.738281 90.929688 211.015625 89.953125 C 211.25 88.976562 212.273438 88.375 213.246094 88.652344 L 213.480469 88.699219 C 214.457031 88.976562 215.058594 89.953125 214.78125 90.929688 C 214.546875 91.71875 213.804688 92.277344 213.015625 92.277344 Z M 166.214844 91.207031 C 165.378906 91.207031 164.636719 90.605469 164.449219 89.769531 C 164.21875 88.792969 164.867188 87.816406 165.84375 87.582031 L 166.03125 87.535156 C 167.007812 87.304688 168.027344 87.957031 168.214844 88.929688 C 168.445312 89.90625 167.796875 90.882812 166.820312 91.117188 L 166.589844 91.160156 C 166.496094 91.160156 166.355469 91.207031 166.214844 91.207031 Z M 203.8125 90.277344 C 203.71875 90.277344 203.628906 90.277344 203.535156 90.234375 L 203.300781 90.1875 C 202.328125 90.046875 201.628906 89.070312 201.769531 88.09375 C 201.953125 87.117188 202.882812 86.421875 203.859375 86.5625 L 204.09375 86.609375 C 205.066406 86.792969 205.765625 87.722656 205.578125 88.699219 C 205.488281 89.675781 204.695312 90.277344 203.8125 90.277344 Z M 175.511719 89.675781 C 174.582031 89.675781 173.792969 88.976562 173.699219 88.046875 C 173.558594 87.027344 174.304688 86.144531 175.324219 86.003906 L 175.558594 85.957031 C 176.578125 85.816406 177.464844 86.5625 177.601562 87.582031 C 177.742188 88.605469 177 89.488281 175.976562 89.628906 L 175.742188 89.675781 C 175.652344 89.628906 175.558594 89.675781 175.511719 89.675781 Z M 194.472656 89.210938 C 194.425781 89.210938 194.378906 89.210938 194.332031 89.210938 L 194.101562 89.210938 C 193.078125 89.164062 192.335938 88.28125 192.382812 87.257812 C 192.425781 86.234375 193.308594 85.492188 194.332031 85.539062 L 194.566406 85.539062 C 195.585938 85.585938 196.332031 86.46875 196.285156 87.492188 C 196.238281 88.464844 195.449219 89.210938 194.472656 89.210938 Z M 184.851562 89.023438 C 183.875 89.023438 183.039062 88.234375 183.039062 87.210938 C 182.992188 86.1875 183.828125 85.351562 184.804688 85.304688 L 185.039062 85.304688 C 186.015625 85.261719 186.898438 86.097656 186.898438 87.074219 C 186.945312 88.09375 186.105469 88.929688 185.132812 88.976562 L 184.851562 89.023438 C 184.898438 89.023438 184.898438 89.023438 184.851562 89.023438 Z M 184.851562 89.023438 " fill-opacity="1" fill-rule="nonzero"/><path fill="#ffffff" d="M 254.320312 177.621094 C 250.839844 167.570312 244.492188 159.03125 235.632812 152.714844 C 228.996094 147.980469 220.746094 144.339844 211.597656 142.019531 C 203.929688 140.054688 195.683594 139.023438 187.210938 139.023438 C 179.316406 139.023438 171.292969 139.925781 163.851562 141.601562 C 154.894531 143.597656 146.710938 146.691406 140.527344 150.621094 C 130.828125 156.710938 123.835938 165.25 119.875 175.496094 C 117.363281 181.96875 116.074219 189.121094 116.074219 196.789062 C 116.074219 211.898438 117.75 223.207031 126.0625 232.839844 C 132.441406 240.25 140.398438 245.472656 150.386719 248.855469 C 160.179688 252.140625 172.195312 253.75 187.144531 253.75 C 220.394531 253.75 237.148438 243.34375 245.328125 234.613281 C 249.871094 229.78125 257.476562 218.40625 257.476562 196.789062 C 257.445312 190.023438 256.378906 183.546875 254.320312 177.621094 Z M 254.320312 177.621094 " fill-opacity="1" fill-rule="nonzero"/><path fill="#0c0c0c" d="M 199.839844 201.429688 C 199.257812 201.203125 198.613281 201.527344 198.390625 202.105469 C 196.617188 207.035156 191.816406 210.417969 186.308594 210.742188 L 186.308594 198.433594 C 189.304688 197.59375 197.550781 195.050781 197.421875 191.828125 C 197.261719 186.898438 193.332031 186.898438 193.332031 186.898438 C 193.332031 186.898438 181.863281 186.898438 177.996094 186.898438 C 173.066406 186.898438 172.90625 190.992188 172.90625 190.992188 C 173.550781 195.339844 181.089844 197.660156 184.019531 198.433594 L 184.019531 210.675781 C 178.734375 210.160156 174.226562 206.84375 172.519531 202.105469 C 172.292969 201.527344 171.648438 201.203125 171.070312 201.429688 C 170.488281 201.65625 170.167969 202.300781 170.390625 202.878906 C 172.550781 208.9375 178.605469 213.027344 185.4375 213.027344 C 192.269531 213.027344 198.292969 208.9375 200.484375 202.878906 C 200.742188 202.265625 200.449219 201.621094 199.839844 201.429688 Z M 199.839844 201.429688 " fill-opacity="1" fill-rule="nonzero"/><g clip-path="url(#709012be6a)"><path fill="#0c0c0c" d="M 263.179688 168.34375 C 271.328125 154.617188 266.820312 136.867188 253.03125 128.648438 C 239.273438 120.464844 221.488281 124.945312 213.339844 138.667969 C 213.082031 139.089844 212.824219 139.539062 212.597656 139.992188 C 204.640625 137.929688 196.003906 136.800781 187.210938 136.800781 C 178.992188 136.800781 170.683594 137.765625 162.949219 139.539062 C 162.5625 138.734375 162.144531 137.929688 161.660156 137.125 C 153.511719 123.398438 135.726562 118.921875 121.96875 127.136719 C 108.179688 135.320312 103.667969 153.070312 111.820312 166.796875 C 113.496094 169.628906 115.589844 172.046875 117.972656 174.078125 C 115.203125 180.972656 113.785156 188.605469 113.785156 196.820312 C 113.785156 205.777344 114.429688 212.285156 115.847656 217.890625 C 117.492188 224.335938 120.164062 229.554688 124.289062 234.355469 C 137.207031 249.367188 156.601562 256.070312 187.082031 256.070312 C 221.167969 256.070312 238.433594 245.277344 246.910156 236.191406 C 251.675781 231.101562 259.667969 219.214844 259.667969 196.820312 C 259.667969 189.476562 258.476562 182.582031 256.1875 176.234375 C 258.925781 174.140625 261.308594 171.46875 263.179688 168.34375 Z M 257.445312 196.820312 C 257.445312 218.441406 249.839844 229.78125 245.296875 234.644531 C 237.113281 243.375 220.394531 253.78125 187.113281 253.78125 C 172.132812 253.78125 160.113281 252.171875 150.351562 248.886719 C 140.363281 245.503906 132.40625 240.285156 126.027344 232.875 C 117.714844 223.242188 116.039062 211.933594 116.039062 196.820312 C 116.039062 189.15625 117.328125 182.003906 119.84375 175.527344 C 120.101562 174.882812 120.359375 174.269531 120.617188 173.625 C 120.617188 173.625 120.617188 173.59375 120.617188 173.59375 C 121.421875 171.726562 122.355469 169.886719 123.386719 168.148438 C 123.707031 167.601562 124.03125 167.054688 124.386719 166.503906 C 124.417969 166.441406 124.449219 166.410156 124.480469 166.34375 C 124.804688 165.828125 125.160156 165.3125 125.511719 164.796875 C 125.546875 164.765625 125.546875 164.734375 125.578125 164.703125 C 126.351562 163.605469 127.15625 162.542969 127.992188 161.542969 C 128.027344 161.511719 128.058594 161.480469 128.089844 161.449219 C 128.476562 160.996094 128.832031 160.546875 129.25 160.125 C 129.347656 160.03125 129.445312 159.933594 129.539062 159.804688 C 129.894531 159.417969 130.214844 159.0625 130.570312 158.675781 C 130.667969 158.578125 130.796875 158.449219 130.894531 158.355469 C 131.28125 157.96875 131.667969 157.582031 132.085938 157.195312 C 132.148438 157.128906 132.214844 157.066406 132.277344 157 C 132.761719 156.550781 133.246094 156.097656 133.726562 155.679688 C 133.792969 155.617188 133.855469 155.582031 133.921875 155.519531 C 134.339844 155.164062 134.757812 154.8125 135.179688 154.457031 C 135.339844 154.328125 135.5 154.199219 135.660156 154.070312 C 136.015625 153.78125 136.371094 153.523438 136.722656 153.230469 C 136.917969 153.101562 137.078125 152.972656 137.273438 152.84375 C 137.625 152.585938 138.011719 152.296875 138.398438 152.039062 C 138.5625 151.910156 138.722656 151.8125 138.882812 151.683594 C 139.429688 151.332031 139.980469 150.945312 140.527344 150.621094 C 140.914062 150.398438 141.265625 150.171875 141.652344 149.914062 C 141.78125 149.847656 141.910156 149.785156 142.039062 149.6875 C 142.296875 149.527344 142.589844 149.367188 142.847656 149.238281 C 143.007812 149.140625 143.136719 149.074219 143.296875 149.011719 C 143.554688 148.882812 143.8125 148.722656 144.070312 148.59375 C 144.230469 148.496094 144.390625 148.429688 144.554688 148.367188 C 144.8125 148.238281 145.101562 148.109375 145.359375 147.949219 C 145.519531 147.882812 145.679688 147.789062 145.84375 147.722656 C 146.132812 147.59375 146.390625 147.464844 146.679688 147.304688 C 146.839844 147.238281 146.96875 147.175781 147.128906 147.109375 C 147.421875 146.980469 147.742188 146.820312 148.03125 146.691406 C 148.160156 146.628906 148.324219 146.5625 148.453125 146.5 C 148.773438 146.371094 149.128906 146.207031 149.484375 146.078125 C 149.613281 146.046875 149.707031 145.984375 149.835938 145.949219 C 150.222656 145.789062 150.609375 145.628906 150.996094 145.5 C 151.0625 145.46875 151.15625 145.433594 151.222656 145.402344 C 155.152344 143.890625 159.40625 142.632812 163.851562 141.632812 C 171.292969 139.957031 179.285156 139.054688 187.210938 139.054688 C 195.683594 139.054688 203.960938 140.085938 211.597656 142.050781 C 215.59375 143.082031 219.425781 144.339844 223.003906 145.820312 C 223.035156 145.820312 223.066406 145.855469 223.101562 145.855469 C 223.550781 146.046875 224.035156 146.242188 224.484375 146.433594 C 224.582031 146.464844 224.679688 146.53125 224.742188 146.5625 C 225.128906 146.722656 225.515625 146.917969 225.902344 147.109375 C 226.03125 147.175781 226.160156 147.238281 226.289062 147.273438 C 226.644531 147.433594 227 147.59375 227.320312 147.789062 C 227.480469 147.851562 227.609375 147.949219 227.738281 148.011719 C 228.0625 148.171875 228.382812 148.335938 228.671875 148.496094 C 228.835938 148.59375 228.996094 148.65625 229.15625 148.753906 C 229.445312 148.914062 229.738281 149.074219 230.058594 149.238281 C 230.21875 149.332031 230.382812 149.429688 230.542969 149.496094 C 230.832031 149.65625 231.121094 149.816406 231.378906 149.976562 C 231.539062 150.074219 231.703125 150.171875 231.863281 150.269531 C 232.152344 150.429688 232.410156 150.621094 232.699219 150.785156 C 232.863281 150.878906 233.023438 150.976562 233.152344 151.074219 C 233.441406 151.265625 233.730469 151.460938 234.023438 151.621094 C 234.152344 151.71875 234.28125 151.78125 234.40625 151.878906 C 234.828125 152.167969 235.214844 152.425781 235.632812 152.714844 C 236.148438 153.070312 236.632812 153.457031 237.113281 153.8125 C 237.277344 153.941406 237.40625 154.039062 237.566406 154.167969 C 237.917969 154.425781 238.242188 154.714844 238.5625 154.972656 C 238.726562 155.101562 238.886719 155.230469 239.046875 155.359375 C 239.402344 155.648438 239.722656 155.9375 240.046875 156.226562 C 240.175781 156.355469 240.304688 156.453125 240.433594 156.582031 C 240.882812 157 241.335938 157.421875 241.785156 157.839844 C 241.816406 157.871094 241.816406 157.871094 241.851562 157.902344 C 242.269531 158.324219 242.6875 158.707031 243.074219 159.128906 C 243.203125 159.257812 243.300781 159.386719 243.429688 159.480469 C 243.75 159.804688 244.042969 160.125 244.332031 160.480469 C 244.460938 160.609375 244.558594 160.738281 244.6875 160.867188 C 245.007812 161.222656 245.296875 161.609375 245.621094 161.960938 C 245.683594 162.058594 245.78125 162.15625 245.84375 162.253906 C 246.230469 162.734375 246.617188 163.21875 247.003906 163.734375 C 247.003906 163.734375 247.003906 163.734375 247.003906 163.765625 C 247.359375 164.25 247.714844 164.734375 248.035156 165.21875 C 248.101562 165.3125 248.199219 165.441406 248.261719 165.570312 C 248.519531 165.957031 248.808594 166.375 249.066406 166.796875 C 249.132812 166.925781 249.226562 167.019531 249.292969 167.148438 C 249.582031 167.601562 249.871094 168.085938 250.128906 168.535156 C 250.164062 168.601562 250.195312 168.632812 250.226562 168.695312 C 250.839844 169.792969 251.453125 170.886719 252 172.015625 C 252.0625 172.113281 252.09375 172.207031 252.128906 172.304688 C 252.351562 172.789062 252.578125 173.238281 252.773438 173.722656 C 252.804688 173.820312 252.867188 173.914062 252.902344 174.042969 C 253.125 174.59375 253.382812 175.171875 253.609375 175.71875 C 253.835938 176.332031 254.09375 176.945312 254.285156 177.589844 C 256.378906 183.546875 257.445312 190.023438 257.445312 196.820312 Z M 257.445312 196.820312 " fill-opacity="1" fill-rule="nonzero"/></g><path fill="#0c0c0c" d="M 158.695312 200.171875 C 153.058594 212.414062 140.269531 218.632812 131.441406 214.414062 C 120.648438 209.226562 119.714844 196.695312 125.351562 184.449219 C 130.988281 172.207031 144.003906 166.34375 152.832031 170.597656 C 163.175781 175.589844 164.335938 187.929688 158.695312 200.171875 Z M 158.695312 200.171875 " fill-opacity="1" fill-rule="nonzero"/><path fill="#0c0c0c" d="M 212.46875 201.976562 C 218.105469 214.21875 230.898438 220.4375 239.722656 216.21875 C 250.515625 211.03125 251.453125 198.496094 245.8125 186.253906 C 240.175781 174.011719 227.160156 168.148438 218.332031 172.402344 C 207.988281 177.394531 206.828125 189.734375 212.46875 201.976562 Z M 212.46875 201.976562 " fill-opacity="1" fill-rule="nonzero"/><path fill="#ffffff" d="M 154.507812 185.675781 C 154.507812 186.101562 154.46875 186.519531 154.382812 186.9375 C 154.300781 187.355469 154.179688 187.761719 154.015625 188.152344 C 153.851562 188.546875 153.652344 188.917969 153.417969 189.273438 C 153.179688 189.625 152.914062 189.953125 152.613281 190.253906 C 152.3125 190.554688 151.984375 190.824219 151.628906 191.058594 C 151.277344 191.296875 150.902344 191.496094 150.511719 191.65625 C 150.117188 191.820312 149.714844 191.941406 149.296875 192.027344 C 148.878906 192.109375 148.457031 192.152344 148.03125 192.152344 C 147.609375 192.152344 147.1875 192.109375 146.769531 192.027344 C 146.351562 191.941406 145.949219 191.820312 145.554688 191.65625 C 145.160156 191.496094 144.789062 191.296875 144.433594 191.058594 C 144.082031 190.824219 143.753906 190.554688 143.453125 190.253906 C 143.152344 189.953125 142.886719 189.625 142.648438 189.273438 C 142.414062 188.917969 142.210938 188.546875 142.050781 188.152344 C 141.886719 187.761719 141.765625 187.355469 141.683594 186.9375 C 141.597656 186.519531 141.558594 186.101562 141.558594 185.675781 C 141.558594 185.25 141.597656 184.828125 141.683594 184.410156 C 141.765625 183.996094 141.886719 183.589844 142.050781 183.195312 C 142.210938 182.804688 142.414062 182.429688 142.648438 182.078125 C 142.886719 181.722656 143.152344 181.398438 143.453125 181.097656 C 143.753906 180.796875 144.082031 180.527344 144.433594 180.289062 C 144.789062 180.054688 145.160156 179.855469 145.554688 179.691406 C 145.949219 179.53125 146.351562 179.40625 146.769531 179.324219 C 147.1875 179.242188 147.609375 179.199219 148.03125 179.199219 C 148.457031 179.199219 148.878906 179.242188 149.296875 179.324219 C 149.714844 179.40625 150.117188 179.53125 150.511719 179.691406 C 150.902344 179.855469 151.277344 180.054688 151.628906 180.289062 C 151.984375 180.527344 152.3125 180.796875 152.613281 181.097656 C 152.914062 181.398438 153.179688 181.722656 153.417969 182.078125 C 153.652344 182.429688 153.851562 182.804688 154.015625 183.195312 C 154.179688 183.589844 154.300781 183.996094 154.382812 184.410156 C 154.46875 184.828125 154.507812 185.25 154.507812 185.675781 Z M 154.507812 185.675781 " fill-opacity="1" fill-rule="nonzero"/><path fill="#ffffff" d="M 229.929688 187.800781 C 229.929688 188.226562 229.886719 188.648438 229.804688 189.066406 C 229.722656 189.480469 229.601562 189.886719 229.4375 190.28125 C 229.273438 190.671875 229.074219 191.046875 228.839844 191.398438 C 228.601562 191.753906 228.332031 192.078125 228.035156 192.378906 C 227.734375 192.679688 227.40625 192.949219 227.050781 193.1875 C 226.699219 193.421875 226.324219 193.621094 225.933594 193.785156 C 225.539062 193.945312 225.132812 194.070312 224.71875 194.152344 C 224.300781 194.234375 223.878906 194.277344 223.453125 194.277344 C 223.027344 194.277344 222.609375 194.234375 222.191406 194.152344 C 221.773438 194.070312 221.367188 193.945312 220.976562 193.785156 C 220.582031 193.621094 220.210938 193.421875 219.855469 193.1875 C 219.503906 192.949219 219.175781 192.679688 218.875 192.378906 C 218.574219 192.078125 218.304688 191.753906 218.070312 191.398438 C 217.832031 191.046875 217.632812 190.671875 217.472656 190.28125 C 217.308594 189.886719 217.1875 189.480469 217.101562 189.066406 C 217.019531 188.648438 216.976562 188.226562 216.976562 187.800781 C 216.976562 187.375 217.019531 186.953125 217.101562 186.539062 C 217.1875 186.121094 217.308594 185.714844 217.472656 185.324219 C 217.632812 184.929688 217.832031 184.558594 218.070312 184.203125 C 218.304688 183.851562 218.574219 183.523438 218.875 183.222656 C 219.175781 182.921875 219.503906 182.652344 219.855469 182.417969 C 220.210938 182.179688 220.582031 181.980469 220.976562 181.820312 C 221.367188 181.65625 221.773438 181.53125 222.191406 181.449219 C 222.609375 181.367188 223.027344 181.324219 223.453125 181.324219 C 223.878906 181.324219 224.300781 181.367188 224.71875 181.449219 C 225.132812 181.53125 225.539062 181.65625 225.933594 181.820312 C 226.324219 181.980469 226.699219 182.179688 227.050781 182.417969 C 227.40625 182.652344 227.734375 182.921875 228.035156 183.222656 C 228.332031 183.523438 228.601562 183.851562 228.839844 184.203125 C 229.074219 184.558594 229.273438 184.929688 229.4375 185.324219 C 229.601562 185.714844 229.722656 186.121094 229.804688 186.539062 C 229.886719 186.953125 229.929688 187.375 229.929688 187.800781 Z M 229.929688 187.800781 " fill-opacity="1" fill-rule="nonzero"/><path fill="#c73659" d="M 136.949219 215.925781 C 136.949219 216.226562 136.902344 216.523438 136.804688 216.820312 C 136.710938 217.113281 136.566406 217.402344 136.378906 217.679688 C 136.191406 217.957031 135.957031 218.21875 135.683594 218.46875 C 135.410156 218.71875 135.101562 218.949219 134.75 219.164062 C 134.402344 219.375 134.023438 219.5625 133.613281 219.730469 C 133.203125 219.898438 132.773438 220.039062 132.316406 220.152344 C 131.859375 220.269531 131.390625 220.355469 130.90625 220.414062 C 130.425781 220.472656 129.9375 220.503906 129.445312 220.503906 C 128.949219 220.503906 128.460938 220.472656 127.980469 220.414062 C 127.496094 220.355469 127.027344 220.269531 126.570312 220.152344 C 126.117188 220.039062 125.683594 219.898438 125.273438 219.730469 C 124.863281 219.5625 124.484375 219.375 124.136719 219.164062 C 123.785156 218.949219 123.476562 218.71875 123.203125 218.46875 C 122.929688 218.21875 122.695312 217.957031 122.507812 217.679688 C 122.320312 217.402344 122.175781 217.113281 122.082031 216.820312 C 121.984375 216.523438 121.9375 216.226562 121.9375 215.925781 C 121.9375 215.625 121.984375 215.328125 122.082031 215.035156 C 122.175781 214.738281 122.320312 214.453125 122.507812 214.175781 C 122.695312 213.898438 122.929688 213.636719 123.203125 213.386719 C 123.476562 213.136719 123.785156 212.90625 124.136719 212.691406 C 124.484375 212.480469 124.863281 212.289062 125.273438 212.125 C 125.683594 211.957031 126.117188 211.816406 126.570312 211.699219 C 127.027344 211.585938 127.496094 211.5 127.980469 211.441406 C 128.460938 211.382812 128.949219 211.351562 129.445312 211.351562 C 129.9375 211.351562 130.425781 211.382812 130.90625 211.441406 C 131.390625 211.5 131.859375 211.585938 132.316406 211.699219 C 132.773438 211.816406 133.203125 211.957031 133.613281 212.125 C 134.023438 212.289062 134.402344 212.480469 134.75 212.691406 C 135.101562 212.90625 135.410156 213.136719 135.683594 213.386719 C 135.957031 213.636719 136.191406 213.898438 136.378906 214.175781 C 136.566406 214.453125 136.710938 214.738281 136.804688 215.035156 C 136.902344 215.328125 136.949219 215.625 136.949219 215.925781 Z M 136.949219 215.925781 " fill-opacity="1" fill-rule="nonzero"/><path fill="#c73659" d="M 247.648438 215.925781 C 247.648438 216.226562 247.601562 216.523438 247.503906 216.820312 C 247.410156 217.113281 247.265625 217.402344 247.078125 217.679688 C 246.890625 217.957031 246.660156 218.21875 246.382812 218.46875 C 246.109375 218.71875 245.800781 218.949219 245.449219 219.164062 C 245.101562 219.375 244.722656 219.5625 244.3125 219.730469 C 243.902344 219.898438 243.472656 220.039062 243.015625 220.152344 C 242.558594 220.269531 242.089844 220.355469 241.605469 220.414062 C 241.125 220.472656 240.636719 220.503906 240.144531 220.503906 C 239.648438 220.503906 239.160156 220.472656 238.679688 220.414062 C 238.195312 220.355469 237.726562 220.269531 237.269531 220.152344 C 236.816406 220.039062 236.382812 219.898438 235.972656 219.730469 C 235.5625 219.5625 235.183594 219.375 234.835938 219.164062 C 234.488281 218.949219 234.175781 218.71875 233.902344 218.46875 C 233.628906 218.21875 233.394531 217.957031 233.207031 217.679688 C 233.019531 217.402344 232.875 217.113281 232.78125 216.820312 C 232.683594 216.523438 232.636719 216.226562 232.636719 215.925781 C 232.636719 215.625 232.683594 215.328125 232.78125 215.035156 C 232.875 214.738281 233.019531 214.453125 233.207031 214.175781 C 233.394531 213.898438 233.628906 213.636719 233.902344 213.386719 C 234.175781 213.136719 234.488281 212.90625 234.835938 212.691406 C 235.183594 212.480469 235.5625 212.289062 235.972656 212.125 C 236.382812 211.957031 236.816406 211.816406 237.269531 211.699219 C 237.726562 211.585938 238.195312 211.5 238.679688 211.441406 C 239.160156 211.382812 239.648438 211.351562 240.144531 211.351562 C 240.636719 211.351562 241.125 211.382812 241.605469 211.441406 C 242.089844 211.5 242.558594 211.585938 243.015625 211.699219 C 243.472656 211.816406 243.902344 211.957031 244.3125 212.125 C 244.722656 212.289062 245.101562 212.480469 245.449219 212.691406 C 245.800781 212.90625 246.109375 213.136719 246.382812 213.386719 C 246.660156 213.636719 246.890625 213.898438 247.078125 214.175781 C 247.265625 214.453125 247.410156 214.738281 247.503906 215.035156 C 247.601562 215.328125 247.648438 215.625 247.648438 215.925781 Z M 247.648438 215.925781 " fill-opacity="1" fill-rule="nonzero"/><g clip-path="url(#faba97dfc4)"><path fill="#a2a2a2" d="M 130.730469 150.183594 C 129.609375 150.296875 128.488281 150.484375 127.367188 150.707031 C 126.996094 150.78125 126.582031 150.855469 126.210938 150.933594 C 125.574219 151.042969 124.941406 151.230469 124.304688 151.417969 C 122.175781 152.015625 120.046875 152.835938 118.027344 153.769531 C 117.992188 153.808594 117.953125 153.808594 117.878906 153.847656 C 117.246094 154.144531 116.644531 154.445312 116.046875 154.78125 C 113.808594 156.011719 111.714844 157.507812 109.773438 159.113281 C 108.316406 160.308594 106.96875 161.652344 105.699219 163.035156 C 105.511719 163.261719 105.289062 163.484375 105.101562 163.707031 C 103.90625 165.128906 102.785156 166.621094 101.816406 168.191406 C 101.03125 169.386719 100.359375 170.65625 99.722656 171.964844 C 99.164062 173.121094 98.675781 174.28125 98.230469 175.476562 C 97.929688 176.335938 97.632812 177.195312 97.371094 178.054688 C 96.546875 180.78125 96.097656 183.582031 95.875 186.421875 C 95.800781 187.167969 95.800781 187.878906 95.761719 188.625 C 95.761719 188.703125 95.761719 188.738281 95.761719 188.8125 C 95.726562 191.167969 95.949219 193.519531 96.324219 195.835938 C 96.433594 196.621094 96.621094 197.441406 96.808594 198.226562 C 97.109375 199.5 97.480469 200.730469 97.890625 201.964844 C 98.042969 202.410156 98.230469 202.859375 98.378906 203.308594 C 98.675781 204.019531 98.976562 204.765625 99.273438 205.4375 C 99.347656 205.625 99.425781 205.8125 99.535156 206 C 100.132812 207.269531 100.804688 208.539062 101.554688 209.734375 C 101.742188 210.03125 101.925781 210.292969 102.078125 210.59375 C 103.273438 212.425781 104.617188 214.144531 106.074219 215.710938 C 107.308594 217.054688 108.613281 218.289062 109.996094 219.449219 C 110.78125 220.121094 111.601562 220.71875 112.460938 221.316406 C 112.835938 221.578125 113.210938 221.839844 113.621094 222.101562 C 114.441406 222.660156 115.300781 223.144531 116.199219 223.632812 C 116.199219 223.632812 116.234375 223.632812 116.234375 223.667969 C 117.953125 224.601562 119.710938 225.386719 121.539062 226.058594 C 124.117188 227.03125 126.808594 227.667969 129.574219 228.039062 C 132.523438 228.449219 135.4375 228.527344 138.390625 228.265625 C 141.453125 228.003906 144.441406 227.367188 147.355469 226.433594 C 152.847656 224.640625 157.851562 221.578125 162.035156 217.617188 C 164.128906 215.675781 165.921875 213.433594 167.527344 211.117188 C 169.210938 208.6875 170.515625 206.035156 171.601562 203.308594 C 172.683594 200.582031 173.394531 197.703125 173.804688 194.789062 C 174.214844 191.765625 174.328125 188.738281 174.066406 185.675781 C 173.542969 179.847656 171.714844 174.167969 168.722656 169.125 C 167.378906 166.734375 165.660156 164.492188 163.753906 162.4375 C 161.851562 160.382812 159.722656 158.589844 157.441406 156.945312 C 155.273438 155.414062 152.921875 154.105469 150.457031 153.0625 C 147.878906 151.976562 145.226562 151.117188 142.460938 150.59375 C 140.183594 150.148438 137.902344 149.921875 135.585938 149.886719 C 135.511719 149.886719 135.4375 149.886719 135.324219 149.886719 C 135.25 149.886719 135.214844 149.886719 135.140625 149.886719 C 133.683594 149.921875 132.226562 149.996094 130.730469 150.183594 Z M 139.621094 154.890625 C 142.648438 155.339844 145.597656 156.125 148.402344 157.28125 C 151.164062 158.476562 153.742188 159.972656 156.132812 161.804688 C 158.449219 163.632812 160.542969 165.726562 162.375 168.042969 C 164.203125 170.433594 165.699219 173.011719 166.894531 175.773438 C 168.050781 178.613281 168.875 181.566406 169.285156 184.628906 C 169.660156 187.691406 169.660156 190.792969 169.285156 193.894531 C 168.835938 196.921875 168.015625 199.871094 166.855469 202.710938 C 165.660156 205.4375 164.167969 208.015625 162.375 210.371094 C 160.542969 212.6875 158.449219 214.777344 156.132812 216.609375 C 153.742188 218.402344 151.164062 219.933594 148.4375 221.128906 C 145.597656 222.285156 142.648438 223.109375 139.585938 223.519531 C 136.519531 223.894531 133.457031 223.894531 130.394531 223.519531 C 127.554688 223.109375 124.789062 222.363281 122.101562 221.316406 C 121.914062 221.242188 121.726562 221.167969 121.578125 221.089844 C 120.941406 220.828125 120.308594 220.53125 119.710938 220.195312 C 119.671875 220.15625 119.636719 220.15625 119.597656 220.121094 C 119.558594 220.121094 119.558594 220.082031 119.523438 220.082031 C 119.484375 220.082031 119.484375 220.046875 119.449219 220.046875 C 117.503906 219.035156 115.636719 217.878906 113.882812 216.535156 C 112.199219 215.1875 110.632812 213.730469 109.210938 212.125 C 109.210938 212.125 109.210938 212.125 109.210938 212.089844 C 109.175781 212.050781 109.175781 212.050781 109.136719 212.011719 C 109.101562 211.976562 109.101562 211.976562 109.0625 211.9375 C 109.0625 211.9375 109.0625 211.902344 109.023438 211.902344 C 108.539062 211.378906 108.089844 210.816406 107.644531 210.257812 C 105.925781 207.976562 104.46875 205.511719 103.273438 202.898438 C 103.273438 202.898438 103.273438 202.859375 103.273438 202.859375 C 103.273438 202.859375 103.273438 202.824219 103.234375 202.824219 C 103.199219 202.75 103.160156 202.636719 103.121094 202.5625 C 102.972656 202.226562 102.859375 201.925781 102.75 201.589844 C 102.75 201.554688 102.710938 201.515625 102.710938 201.476562 C 102.710938 201.476562 102.710938 201.476562 102.710938 201.441406 C 101.851562 199.160156 101.253906 196.84375 100.84375 194.453125 C 100.84375 194.453125 100.84375 194.417969 100.84375 194.417969 C 100.84375 194.378906 100.84375 194.34375 100.84375 194.34375 C 100.84375 194.304688 100.84375 194.304688 100.84375 194.269531 C 100.84375 194.269531 100.84375 194.230469 100.84375 194.230469 C 100.804688 194.082031 100.804688 193.894531 100.769531 193.746094 C 100.394531 190.644531 100.394531 187.542969 100.769531 184.480469 C 101.03125 182.835938 101.367188 181.191406 101.816406 179.625 C 101.816406 179.585938 101.851562 179.546875 101.851562 179.511719 C 101.851562 179.472656 101.851562 179.4375 101.890625 179.4375 C 101.890625 179.4375 101.890625 179.398438 101.890625 179.398438 C 102.261719 178.167969 102.675781 176.972656 103.160156 175.773438 C 104.355469 173.046875 105.851562 170.46875 107.679688 168.078125 C 108.277344 167.296875 108.914062 166.585938 109.585938 165.839844 C 109.621094 165.800781 109.621094 165.761719 109.660156 165.761719 C 109.660156 165.761719 109.660156 165.726562 109.699219 165.726562 C 109.734375 165.6875 109.734375 165.6875 109.773438 165.652344 C 109.773438 165.652344 109.808594 165.613281 109.808594 165.613281 C 109.808594 165.613281 109.847656 165.578125 109.847656 165.578125 C 109.882812 165.539062 109.882812 165.539062 109.921875 165.5 C 109.921875 165.5 109.960938 165.464844 109.960938 165.464844 C 109.996094 165.425781 109.996094 165.425781 110.035156 165.390625 C 110.035156 165.390625 110.035156 165.390625 110.070312 165.351562 C 110.109375 165.316406 110.144531 165.277344 110.144531 165.277344 C 111.265625 164.121094 112.460938 163.035156 113.695312 162.027344 C 113.734375 161.988281 113.769531 161.953125 113.808594 161.953125 C 113.84375 161.914062 113.882812 161.914062 113.917969 161.878906 C 116.308594 160.085938 118.886719 158.554688 121.613281 157.359375 C 121.953125 157.246094 122.25 157.097656 122.585938 156.984375 C 122.625 156.984375 122.625 156.984375 122.660156 156.945312 C 122.699219 156.945312 122.699219 156.945312 122.734375 156.910156 C 124.828125 156.125 126.957031 155.5625 129.125 155.152344 C 129.125 155.152344 129.160156 155.152344 129.160156 155.152344 C 129.160156 155.152344 129.160156 155.152344 129.199219 155.152344 C 129.609375 155.078125 129.984375 155.003906 130.394531 154.964844 C 130.84375 154.890625 131.328125 154.855469 131.777344 154.816406 C 134.355469 154.519531 137.007812 154.554688 139.621094 154.890625 Z M 166.820312 202.859375 C 166.78125 202.933594 166.78125 202.972656 166.746094 203.046875 C 166.78125 202.972656 166.820312 202.898438 166.820312 202.859375 Z M 166.820312 202.859375 " fill-opacity="1" fill-rule="nonzero"/></g><g clip-path="url(#6d72fcf9a4)"><path fill="#a2a2a2" d="M 230.367188 153.136719 C 227.5625 153.808594 224.835938 154.890625 222.222656 156.164062 C 221.289062 156.609375 220.390625 157.132812 219.496094 157.65625 C 219.308594 157.769531 219.082031 157.917969 218.898438 158.03125 C 217.328125 159 215.832031 160.121094 214.414062 161.316406 C 213.59375 162.027344 212.769531 162.773438 211.984375 163.558594 C 210.042969 165.5 208.285156 167.707031 206.792969 170.023438 C 206.046875 171.179688 205.371094 172.375 204.738281 173.609375 C 204.625 173.796875 204.550781 174.019531 204.4375 174.207031 C 203.917969 175.328125 203.429688 176.449219 202.980469 177.605469 C 202.980469 177.644531 202.980469 177.644531 202.945312 177.679688 C 201.9375 180.296875 201.300781 183.058594 200.925781 185.824219 C 200.515625 188.8125 200.441406 191.800781 200.703125 194.828125 C 201.226562 200.617188 203.058594 206.222656 205.972656 211.230469 C 207.390625 213.65625 209.109375 215.898438 210.976562 217.953125 C 212.882812 220.046875 215.085938 221.875 217.363281 223.519531 C 219.71875 225.199219 222.257812 226.507812 224.910156 227.628906 C 227.5625 228.710938 230.292969 229.496094 233.128906 229.984375 C 239.109375 230.992188 245.234375 230.617188 251.0625 228.898438 C 256.742188 227.21875 261.933594 224.15625 266.34375 220.195312 C 270.5625 216.347656 273.851562 211.527344 276.054688 206.261719 C 278.296875 200.878906 279.269531 194.976562 278.96875 189.113281 C 278.671875 183.246094 276.988281 177.53125 274.1875 172.375 C 272.84375 169.910156 271.199219 167.632812 269.367188 165.5 C 267.539062 163.335938 265.410156 161.46875 263.167969 159.75 C 261 158.105469 258.609375 156.722656 256.144531 155.5625 C 253.492188 154.367188 250.765625 153.433594 247.925781 152.835938 C 245.273438 152.277344 242.582031 152.015625 239.890625 152.015625 C 236.71875 152.015625 233.503906 152.390625 230.367188 153.136719 Z M 244.488281 156.945312 C 247.511719 157.394531 250.464844 158.179688 253.304688 159.335938 C 256.03125 160.53125 258.570312 162.027344 260.960938 163.785156 C 263.316406 165.613281 265.410156 167.742188 267.277344 170.058594 C 269.070312 172.414062 270.5625 174.992188 271.757812 177.71875 C 272.917969 180.558594 273.738281 183.546875 274.1875 186.570312 C 274.5625 189.671875 274.5625 192.773438 274.1875 195.835938 C 273.738281 198.863281 272.953125 201.8125 271.796875 204.652344 C 270.601562 207.378906 269.105469 209.957031 267.3125 212.347656 C 265.445312 214.703125 263.355469 216.796875 261.039062 218.625 C 258.644531 220.417969 256.03125 221.949219 253.304688 223.144531 C 250.464844 224.304688 247.550781 225.089844 244.523438 225.535156 C 241.460938 225.910156 238.359375 225.910156 235.261719 225.535156 C 232.269531 225.089844 229.320312 224.304688 226.519531 223.144531 C 223.753906 221.949219 221.175781 220.457031 218.785156 218.625 C 216.429688 216.757812 214.339844 214.664062 212.472656 212.3125 C 210.679688 209.921875 209.183594 207.378906 207.988281 204.617188 C 206.828125 201.777344 206.046875 198.824219 205.597656 195.800781 C 205.222656 192.699219 205.222656 189.597656 205.597656 186.535156 C 206.007812 183.65625 206.753906 180.855469 207.839844 178.167969 C 207.839844 178.167969 207.839844 178.167969 207.839844 178.128906 C 207.839844 178.128906 207.839844 178.089844 207.839844 178.089844 C 207.875 177.980469 207.914062 177.867188 207.988281 177.753906 C 208.210938 177.230469 208.4375 176.710938 208.699219 176.222656 C 208.699219 176.222656 208.699219 176.1875 208.699219 176.1875 C 208.699219 176.148438 208.734375 176.113281 208.734375 176.074219 C 209.78125 173.945312 211.015625 171.925781 212.472656 170.023438 C 214.300781 167.707031 216.429688 165.578125 218.746094 163.746094 C 218.820312 163.671875 218.898438 163.632812 218.972656 163.558594 C 218.972656 163.558594 219.007812 163.558594 219.007812 163.523438 C 219.046875 163.523438 219.046875 163.484375 219.082031 163.484375 C 221.289062 161.878906 223.640625 160.496094 226.144531 159.375 C 226.183594 159.375 226.21875 159.335938 226.257812 159.335938 C 226.257812 159.335938 226.292969 159.335938 226.292969 159.300781 C 226.332031 159.300781 226.332031 159.261719 226.367188 159.261719 C 226.40625 159.261719 226.441406 159.226562 226.441406 159.226562 C 226.554688 159.1875 226.667969 159.152344 226.78125 159.074219 C 229.507812 157.992188 232.347656 157.246094 235.261719 156.796875 C 238.324219 156.574219 241.425781 156.574219 244.488281 156.945312 Z M 244.488281 156.945312 " fill-opacity="1" fill-rule="nonzero"/></g><path fill="#a2a2a2" d="M 186.058594 176.035156 C 184.789062 176.113281 183.480469 176.296875 182.25 176.632812 C 181.800781 176.746094 181.390625 176.859375 180.941406 177.007812 C 179.78125 177.382812 178.625 177.941406 177.578125 178.539062 C 177.128906 178.800781 176.683594 179.101562 176.269531 179.398438 C 176.269531 179.398438 176.234375 179.4375 176.234375 179.4375 C 176.195312 179.472656 176.160156 179.511719 176.082031 179.546875 C 175.710938 179.847656 175.335938 180.109375 174.964844 180.445312 C 173.617188 181.527344 172.535156 182.835938 171.527344 184.21875 C 170.890625 185.152344 170.332031 186.125 169.882812 187.167969 C 169.882812 187.167969 169.882812 187.207031 169.84375 187.207031 C 169.84375 187.207031 169.84375 187.246094 169.84375 187.246094 C 169.84375 187.28125 169.808594 187.320312 169.808594 187.320312 C 169.695312 187.507812 169.621094 187.691406 169.582031 187.878906 C 169.582031 187.917969 169.546875 187.917969 169.546875 187.953125 C 169.320312 188.515625 169.507812 189.261719 169.769531 189.746094 C 170.070312 190.269531 170.59375 190.644531 171.152344 190.832031 C 171.75 190.980469 172.421875 190.90625 172.945312 190.605469 C 173.09375 190.496094 173.246094 190.34375 173.429688 190.234375 C 173.691406 189.933594 173.917969 189.636719 174.027344 189.261719 C 174.515625 188.179688 175.113281 187.167969 175.824219 186.199219 C 176.570312 185.265625 177.429688 184.40625 178.363281 183.65625 C 179.335938 182.949219 180.378906 182.351562 181.464844 181.828125 C 182.621094 181.378906 183.78125 181.042969 185.011719 180.855469 C 186.28125 180.707031 187.515625 180.707031 188.785156 180.855469 C 189.53125 180.96875 190.28125 181.15625 190.988281 181.378906 C 191.027344 181.378906 191.027344 181.378906 191.066406 181.378906 C 191.066406 181.378906 191.101562 181.378906 191.101562 181.378906 C 191.511719 181.492188 191.960938 181.640625 192.371094 181.828125 C 193.492188 182.3125 194.539062 182.949219 195.511719 183.65625 C 195.585938 183.734375 195.695312 183.808594 195.773438 183.882812 C 196.59375 184.59375 197.339844 185.339844 198.011719 186.160156 C 198.609375 186.984375 199.171875 187.878906 199.621094 188.777344 C 199.621094 188.777344 199.621094 188.8125 199.65625 188.8125 C 199.730469 188.964844 199.804688 189.113281 199.882812 189.300781 C 200.179688 190.082031 200.441406 190.832031 200.628906 191.652344 C 200.742188 192.0625 200.816406 192.476562 200.890625 192.921875 C 200.925781 193.257812 200.964844 193.632812 200.964844 193.96875 C 200.964844 193.96875 200.964844 194.007812 200.964844 194.007812 C 200.964844 194.042969 200.964844 194.082031 200.964844 194.117188 C 200.964844 194.117188 200.964844 194.15625 200.964844 194.15625 C 200.964844 194.191406 200.964844 194.230469 200.964844 194.269531 C 200.964844 194.269531 200.964844 194.304688 200.964844 194.304688 C 200.964844 194.34375 200.964844 194.378906 200.964844 194.417969 C 200.964844 194.417969 200.964844 194.453125 200.964844 194.453125 C 200.964844 194.492188 200.964844 194.53125 200.964844 194.566406 C 200.964844 194.566406 200.964844 194.566406 200.964844 194.605469 C 200.964844 194.640625 200.964844 194.679688 200.964844 194.753906 C 200.964844 194.789062 200.964844 194.867188 200.964844 194.902344 C 200.964844 196.171875 202.046875 197.257812 203.316406 197.257812 C 204.589844 197.257812 205.632812 196.210938 205.671875 194.902344 C 205.671875 193.109375 205.449219 191.277344 204.925781 189.523438 C 204.925781 189.523438 204.925781 189.484375 204.925781 189.484375 C 204.8125 189.113281 204.699219 188.703125 204.550781 188.328125 C 204.253906 187.542969 203.917969 186.757812 203.503906 186.050781 C 203.207031 185.488281 202.871094 184.890625 202.496094 184.367188 C 201.9375 183.546875 201.300781 182.722656 200.589844 182.015625 C 200.515625 181.941406 200.441406 181.828125 200.367188 181.753906 C 200.144531 181.527344 199.917969 181.304688 199.65625 181.082031 C 198.910156 180.371094 198.089844 179.734375 197.230469 179.175781 C 196.667969 178.800781 196.109375 178.464844 195.511719 178.203125 C 195.25 178.054688 194.988281 177.941406 194.6875 177.832031 C 194.578125 177.792969 194.464844 177.71875 194.351562 177.679688 C 193.382812 177.269531 192.371094 176.933594 191.328125 176.671875 C 190.988281 176.597656 190.652344 176.523438 190.28125 176.449219 C 189.496094 176.296875 188.671875 176.222656 187.851562 176.1875 C 187.816406 176.1875 187.738281 176.1875 187.703125 176.1875 C 187.476562 176.1875 187.214844 176.1875 186.992188 176.1875 C 186.65625 176 186.359375 176 186.058594 176.035156 Z M 186.058594 176.035156 " fill-opacity="1" fill-rule="nonzero"/></svg>